<svg xmlns="http://www.w3.org/2000/svg" xmlns:xlink="http://www.w3.org/1999/xlink" viewBox="0 0 156 156"><defs><path id="a" d="M152 80.57V90.9l-.02 4.29v.57l-.03 4.33v.5l-.08 4.44-.15 5.02-.03.66-.22 4.02-.04.49-.36 3.99-.07.61-.1.79-.41 2.88-.21 1.2-.36 1.77-.25 1.1-.53 2.01-.55 1.77-.79 2.1-.42 1-.57 1.2-1.33 2.35-.9 1.32-1.17 1.48-1.48 1.6-.94.86-1.14.93-1.65 1.16-1.16.7-1.97 1.04-1.68.74-1.23.48-.56.2-1.74.55-2.03.55-.56.13-.87.2-2.62.5-1.39.22-1.86.26-1.03.12-2 .2-2.38.2-2.5.16-2.23.1-2.65.1-2.08.06-.74.02-2.06.03-2 .03-.9.01-1.99.02-1.95.01h-.98l-1.95.01h-9.76l-1.94.01H60.85l-1.94-.01-1.95-.01h-.98l-1.95-.01-2-.02h-.9l-1.99-.04-2.06-.03-.74-.02-2.08-.06-2.21-.07-2.68-.13-2.4-.15-2.48-.2-1.99-.21-1.03-.12-1.86-.26-1.39-.22-2.61-.5-.88-.2-.56-.13-2.03-.55-1.74-.55-.56-.2-1.23-.48-1.68-.74-1.97-1.03-1.16-.71-1.65-1.16-1.14-.93-.94-.87-1.48-1.59-1.17-1.48-.9-1.32-1.33-2.36-.4-.8-.6-1.39-.78-2.1-.55-1.77-.53-2.02-.25-1.1-.36-1.75-.2-1.2-.43-2.89-.09-.79-.07-.61-.36-4-.04-.48-.22-4.02-.03-.6-.15-4.72-.07-4.8-.01-.5-.03-4.33v-.57L0 90.9V61.1l.02-4.29v-.57l.03-4.33v-.5l.08-4.44.15-5.02.03-.66.22-4.02.04-.49.36-3.99.07-.61.1-.79.41-2.88.21-1.2.36-1.77.25-1.1.53-2.01.55-1.77.79-2.1.42-1 .57-1.2L6.52 14l.9-1.32 1.17-1.48 1.48-1.6.94-.86 1.14-.93 1.65-1.16 1.16-.7 1.97-1.04 1.68-.74 1.23-.48.56-.2 1.74-.55 2.03-.55.56-.13.88-.2 2.61-.5 1.39-.22 1.86-.26L32.5.96l2-.2 2.38-.2 2.5-.16L41.6.3l2.65-.1 2.08-.06.74-.02L49.14.1l2-.03.9-.01 1.99-.02 1.95-.01h.98L58.9.01h9.76L70.61 0h20.54l1.94.01 1.95.01h.98l1.95.01 2 .02h.9l2 .04 2.05.03.74.02 2.08.06 2.21.07 2.68.13 2.4.15 2.48.2 1.99.21 1.03.12 1.86.26 1.39.22 2.62.5.87.2.56.13 2.03.55 1.74.55.56.2 1.23.48 1.68.74 1.97 1.03 1.16.71 1.65 1.16 1.14.93.94.87 1.48 1.59 1.17 1.48.9 1.32 1.33 2.36.4.8.6 1.39.78 2.1.55 1.77.53 2.02.25 1.1.36 1.75.2 1.2.43 2.89.09.79.07.61.36 4 .04.48.22 4.02.03.6.15 4.72.07 4.8.01.5.03 4.33v.57l.02 4.29V75.7z"/></defs><g fill="none" fill-rule="evenodd"><g transform="translate(2 2)"><mask id="b" fill="#fff"><use xlink:href="#a"/></mask><path stroke="#9B9B9B" stroke-width="2" d="M153 80.57V90.9l-.02 4.29v.58l-.03 4.34v.5l-.08 4.45-.15 5.04-.03.66-.23 4.04-.03.5-.36 4.02-.08.62-.1.81-.42 2.92-.21 1.22-.36 1.8-.26 1.12-.54 2.06-.57 1.82-.8 2.15-.45 1.03-.6 1.26-1.37 2.42-.94 1.38-1.23 1.55-1.54 1.64-.98.9-1.2.98-1.7 1.19-1.21.74-2.04 1.07-1.72.76-1.25.48-.6.2-1.78.58-2.06.55-.57.14-.9.2-2.66.51-1.4.22-1.88.26-1.05.12-2 .21-2.41.2-2.52.16-2.24.1-2.66.1-2.08.06-.76.02-2.05.03-2 .03-.91.01-1.99.02-1.96.01h-.97l-1.96.01h-9.76l-1.94.01H60.85l-1.95-.01-1.94-.01h-.98l-1.96-.01-2-.02h-.9l-2-.04-2.06-.03-.75-.02-2.09-.06-2.22-.08-2.69-.12-2.41-.16-2.51-.2-2-.2-1.06-.13-1.87-.26-1.43-.22-2.64-.51-.9-.2-.58-.14-2.08-.57-1.77-.56-.58-.21-1.27-.5-1.75-.76-2.03-1.07-1.2-.75-1.7-1.2-1.2-.97-.99-.91-1.54-1.66-1.2-1.54-.95-1.4-1.36-2.4-.4-.84-.63-1.44-.8-2.15-.57-1.82-.54-2.04-.25-1.12-.36-1.79-.22-1.23-.42-2.91-.1-.79-.07-.64-.36-4.01-.03-.5-.23-4.03-.03-.62-.15-4.74-.07-4.79-.01-.51-.03-4.34v-.57L-1 90.91V61.1l.02-4.29v-.58l.03-4.34v-.5l.08-4.45.15-5.04.03-.66.23-4.04.03-.5.36-4.02.08-.62.1-.81.42-2.92.21-1.22.36-1.8.26-1.12.54-2.06.57-1.82.8-2.15.45-1.03.6-1.26 1.37-2.42.94-1.38 1.23-1.55L9.4 8.87l.98-.9 1.2-.98 1.7-1.19 1.21-.74 2.04-1.07 1.72-.76 1.25-.48.6-.2 1.78-.58 2.06-.55.57-.14.91-.2 2.65-.51 1.4-.22 1.88-.26 1.05-.12 2-.21 2.41-.2 2.52-.16 2.24-.1 2.66-.1 2.08-.06.76-.02 2.06-.03 2-.03.9-.01 1.99-.02 1.96-.01h.97l1.96-.01h9.76L70.61-1h20.54l1.95.01 1.94.01h.98l1.96.01 2 .02h.9l2 .04 2.06.03.75.02 2.09.06 2.22.08 2.69.12 2.41.16 2.51.2 2 .2 1.06.13 1.87.26 1.43.22 2.64.52.9.2.58.13 2.08.57 1.77.56.58.21 1.27.5 1.75.76 2.03 1.07 1.2.75 1.7 1.2 1.2.97.99.91 1.54 1.66 1.2 1.54.95 1.4 1.36 2.4.4.84.63 1.44.8 2.15.57 1.82.54 2.04.25 1.12.36 1.79.22 1.23.42 2.91.1.79.07.64.36 4.01.03.5.23 4.03.03.62.15 4.74.07 4.79.01.51.03 4.34v.57l.02 4.29v19.48z"/><path stroke="#9B9B9B" stroke-width="2" d="M0 0l152 152" mask="url(#b)"/><path stroke="#9B9B9B" stroke-linecap="square" stroke-width="2" d="M152 0L0 152" mask="url(#b)"/></g><path stroke="#9B9B9B" stroke-width="2" d="M12 12v132M78 2v152m66-142v132m0-132H12m142 66H2m142 66H12"/><circle cx="78" cy="78" r="66" stroke="#9B9B9B" stroke-width="2"/><circle cx="78" cy="78" r="39" stroke="#9B9B9B" stroke-width="2"/><circle cx="78" cy="78" r="28" stroke="#9B9B9B" stroke-width="2"/></g></svg>